<svg width="30" height="31" viewBox="0 0 30 31" fill="none" xmlns="http://www.w3.org/2000/svg">
<path d="M6.71502 30.308H0.495425V10.279H6.71502V30.308ZM3.60187 7.54688C1.61348 7.54688 0 5.89956 0 3.91072C0 1.92188 1.61348 0.308044 3.60187 0.308044C5.59027 0.308044 7.20375 1.92188 7.20375 3.91072C7.20375 5.89956 5.59027 7.54688 3.60187 7.54688ZM29.9933 30.308H23.7871V20.558C23.7871 18.2344 23.7402 15.2545 20.5534 15.2545C17.3198 15.2545 16.8244 17.779 16.8244 20.3906V30.308H10.6115V10.279H16.5767V13.0112H16.6637C17.4939 11.4375 19.5224 9.77679 22.5485 9.77679C28.8418 9.77679 30 13.9219 30 19.3058V30.308H29.9933Z" fill="#857885"/>
</svg>
