<svg xmlns="http://www.w3.org/2000/svg"><style>:root svg:not(:target){display:none}</style><svg viewBox="0 0 25 24" fill="none" id="accessibility-icon"><g clip-path="url(#accessibility-icon_0)"><path d="M12.9244 4.5C13.96 4.5 14.7994 3.66053 14.7994 2.625C14.7994 1.58947 13.96 0.75 12.9244 0.75C11.8889 0.75 11.0494 1.58947 11.0494 2.625C11.0494 3.66053 11.8889 4.5 12.9244 4.5Z" stroke="#591567" stroke-width="1.5" stroke-linejoin="round"></path><path d="M10.4977 12.8644C10.6336 12.0178 10.6946 11.1994 10.4742 10.6336C10.2867 10.147 9.87893 9.87468 9.38674 9.68906L5.0494 8.28562C4.4869 8.09812 3.96143 7.78406 3.9244 7.16343C3.87753 6.36656 4.58065 5.85093 5.28378 6.03843C5.28378 6.03843 9.40878 7.49812 12.9244 7.49812C16.44 7.49812 20.5182 6.045 20.5182 6.045C21.3619 5.81062 21.9244 6.46687 21.9244 7.16015C21.9244 7.82625 21.4088 8.06062 20.7994 8.28234L16.6744 9.77812C16.2994 9.91875 15.69 10.2 15.4557 10.6303C15.1744 11.1342 15.2213 12.0145 15.3572 12.8611L15.6338 14.25L17.3874 21.9328C17.5186 22.5492 17.0921 23.1253 16.478 23.2331C15.8639 23.3409 15.3619 22.9219 15.18 22.3256L13.4194 16.8914C13.3347 16.6308 13.2597 16.3672 13.1944 16.1006L12.9244 15L12.676 16.0148C12.5972 16.3383 12.5066 16.6583 12.4041 16.9748L10.6744 22.3209C10.4869 22.9233 9.99471 23.3405 9.38065 23.2331C8.76659 23.1258 8.33065 22.5023 8.46846 21.9328L10.2211 14.2533L10.4977 12.8644Z" stroke="#591567" stroke-width="1.5" stroke-linejoin="round"></path></g><defs><clipPath id="accessibility-icon_0"><rect width="24" height="24" fill="white" transform="translate(0.924438)"></rect></clipPath></defs></svg><svg viewBox="0 0 24 24" fill="none" id="analytics-icon"><path d="M3.75 15L8.625 10.125M16.125 13.125L20.25 9L16.125 13.125ZM10.875 10.125L13.875 13.125L10.875 10.125Z" stroke="#591567" stroke-width="1.52232" stroke-linecap="round" stroke-linejoin="round"></path><path d="M21.375 9C21.9963 9 22.5 8.49632 22.5 7.875C22.5 7.25368 21.9963 6.75 21.375 6.75C20.7537 6.75 20.25 7.25368 20.25 7.875C20.25 8.49632 20.7537 9 21.375 9Z" stroke="#591567" stroke-width="1.52232" stroke-linecap="round" stroke-linejoin="round"></path><path d="M15 15.375C15.6213 15.375 16.125 14.8713 16.125 14.25C16.125 13.6287 15.6213 13.125 15 13.125C14.3787 13.125 13.875 13.6287 13.875 14.25C13.875 14.8713 14.3787 15.375 15 15.375Z" stroke="#591567" stroke-width="1.52232" stroke-linecap="round" stroke-linejoin="round"></path><path d="M9.75 10.125C10.3713 10.125 10.875 9.62132 10.875 9C10.875 8.37868 10.3713 7.875 9.75 7.875C9.12868 7.875 8.625 8.37868 8.625 9C8.625 9.62132 9.12868 10.125 9.75 10.125Z" stroke="#591567" stroke-width="1.52232" stroke-linecap="round" stroke-linejoin="round"></path><path d="M2.625 17.25C3.24632 17.25 3.75 16.7463 3.75 16.125C3.75 15.5037 3.24632 15 2.625 15C2.00368 15 1.5 15.5037 1.5 16.125C1.5 16.7463 2.00368 17.25 2.625 17.25Z" stroke="#591567" stroke-width="1.52232" stroke-linecap="round" stroke-linejoin="round"></path></svg><svg viewBox="0 0 20 13" fill="none" id="arrow"><path d="M1 6.95044H18.5M18.5 6.95044L13.5 1.95044M18.5 6.95044L13.5 11.9504" stroke="#5C0E62" stroke-width="2" stroke-linecap="round" stroke-linejoin="round"></path></svg><svg viewBox="0 0 1502 329" fill="none" id="bg-community"><path d="M834.694 12.3188C1260.6 -58.577 1443.19 199.199 1502.02 336.949L1502.02 1703.39L0.01941 1981.27L0.0201635 639.767L0.0194895 160.283C130.52 140.501 408.785 83.2147 834.694 12.3188Z" fill="white"></path></svg><svg viewBox="0 0 220 965" fill="none" id="bg-customers"><path opacity="0.3" d="M197.022 774.184C160.436 866.107 54.434 940.788 0 964.47V0.470459C96.3391 289.344 285.568 551.716 197.022 774.184Z" fill="#E4D6EE"></path></svg><svg viewBox="0 0 161 965" fill="none" id="bg-feedback-figure"><path opacity="0.3" d="M138.022 774.184C101.436 866.107 -4.56597 940.788 -59 964.47V0.470459C37.3391 289.344 226.568 551.716 138.022 774.184Z" fill="#E4D6EE"></path></svg><svg viewBox="0 0 1500 997" fill="none" id="bg-feedback"><path d="M0 281.927L1500 0.470459V996.47H0V281.927Z" fill="url(#bg-feedback_0)"></path><defs><linearGradient id="bg-feedback_0" x1="2.76539e-06" y1="91.2692" x2="1496.41" y2="456.93" gradientUnits="userSpaceOnUse"><stop stop-color="#5C0E62"></stop><stop offset="1" stop-color="#00B5D0"></stop></linearGradient></defs></svg><svg viewBox="0 0 1652 972" fill="none" id="bg-promo-1600"><path d="M780.279 900.544C378.993 1078.48 92.8904 881.619 0 760.948V0.461914H1652.23V520.301C1528.79 572.91 1181.57 722.611 780.279 900.544Z" fill="url(#bg-promo-1600_0)"></path><path d="M880.535 406.155C1269.29 579.715 1566.96 445.574 1667.2 356.809L1715.38 -249.014L68.349 -380L35.4149 34.1169C155.142 85.8134 491.784 232.596 880.535 406.155Z" fill="url(#bg-promo-1600_1)"></path><defs><linearGradient id="bg-promo-1600_0" x1="3.04605e-06" y1="89.0116" x2="1623.06" y2="536.969" gradientUnits="userSpaceOnUse"><stop stop-color="#5C0E62"></stop><stop offset="1" stop-color="#00B5D0"></stop></linearGradient><linearGradient id="bg-promo-1600_1" x1="1504.82" y1="-64.2535" x2="277.189" y2="182.928" gradientUnits="userSpaceOnUse"><stop stop-color="#00B5D0"></stop><stop offset="1" stop-color="#5C0E62"></stop></linearGradient></defs></svg><svg viewBox="0 0 1500 675" fill="none" id="bg-promo-big"><path d="M737.897 603.739C336.61 781.672 50.5076 584.813 -42.3828 464.143V-296.343H1609.85V223.496C1486.4 276.105 1139.18 425.806 737.897 603.739Z" fill="url(#bg-promo-big_0)"></path><path d="M838.152 109.35C1226.9 282.91 1524.58 148.769 1624.82 60.0039L1673 -545.819L25.9662 -676.805L-6.96796 -262.688C112.759 -210.992 449.401 -64.2088 838.152 109.35Z" fill="url(#bg-promo-big_1)"></path><defs><linearGradient id="bg-promo-big_0" x1="-42.3828" y1="-207.794" x2="1580.68" y2="240.164" gradientUnits="userSpaceOnUse"><stop stop-color="#5C0E62"></stop><stop offset="1" stop-color="#00B5D0"></stop></linearGradient><linearGradient id="bg-promo-big_1" x1="1462.44" y1="-361.058" x2="234.806" y2="-113.877" gradientUnits="userSpaceOnUse"><stop stop-color="#00B5D0"></stop><stop offset="1" stop-color="#5C0E62"></stop></linearGradient></defs></svg><svg viewBox="0 0 691 325" fill="none" id="bg-promo"><mask id="bg-promo_0" style="mask-type:alpha" maskUnits="userSpaceOnUse" x="0" y="0" width="691" height="325"><rect y="0.977295" width="690.368" height="324.023" fill="#F51D1D"></rect></mask><g mask="url(#bg-promo_0)"><path d="M354.004 285.954C523.098 361.447 652.576 303.1 696.179 264.49L717.135 0.977295L0.730054 -55.9975L-13.5952 124.13C38.4821 146.616 184.91 210.462 354.004 285.954Z" fill="url(#bg-promo_1)"></path></g><defs><linearGradient id="bg-promo_1" x1="625.548" y1="81.3419" x2="-16.1384" y2="181.918" gradientUnits="userSpaceOnUse"><stop stop-color="#00B5D0"></stop><stop offset="1" stop-color="#5C0E62"></stop></linearGradient></defs></svg><svg viewBox="0 0 1502 288" fill="none" id="bg-triangle"><mask id="bg-triangle_0" style="mask-type:alpha" maskUnits="userSpaceOnUse" x="0" y="0" width="1502" height="288"><rect width="1501.5" height="288" fill="#D9D9D9"></rect></mask><g mask="url(#bg-triangle_0)"><path d="M834.175 -1684.48C1260.08 -1755.37 1442.67 -1497.6 1501.5 -1359.85L1501.5 6.59672L-0.500365 284.471L-0.499612 -1057.03L-0.500286 -1536.51C130 -1556.29 408.265 -1613.58 834.175 -1684.48Z" fill="white"></path></g></svg><svg viewBox="0 0 25 24" fill="none" id="cash-icon"><path d="M2.64911 15.75L22.1491 15.75C22.5633 15.75 22.8991 15.4142 22.8991 15V4.5C22.8991 4.08579 22.5633 3.75 22.1491 3.75L2.64911 3.75C2.2349 3.75 1.89911 4.08579 1.89911 4.5V15C1.89911 15.4142 2.2349 15.75 2.64911 15.75Z" stroke="#591567" stroke-width="1.53756" stroke-linejoin="round"></path><path d="M4.89911 20.25H19.8991M3.39911 18H21.3991H3.39911Z" stroke="#591567" stroke-width="1.53756" stroke-linecap="round" stroke-linejoin="round"></path><path d="M12.3991 13.5C14.4702 13.5 16.1491 11.8211 16.1491 9.75C16.1491 7.67893 14.4702 6 12.3991 6C10.328 6 8.64911 7.67893 8.64911 9.75C8.64911 11.8211 10.328 13.5 12.3991 13.5Z" stroke="#591567" stroke-width="1.53756" stroke-linecap="round" stroke-linejoin="round"></path><path d="M1.89911 12C2.39157 12 2.8792 12.097 3.33417 12.2855C3.78914 12.4739 4.20254 12.7501 4.55076 13.0983C4.89898 13.4466 5.1752 13.86 5.36366 14.3149C5.55211 14.7699 5.64911 15.2575 5.64911 15.75M22.8991 7.5C21.9045 7.5 20.9507 7.10491 20.2475 6.40165C19.5442 5.69839 19.1491 4.74456 19.1491 3.75L22.8991 7.5ZM1.89911 7.5C2.39157 7.5 2.8792 7.403 3.33417 7.21455C3.78914 7.02609 4.20254 6.74987 4.55076 6.40165C4.89898 6.05343 5.1752 5.64003 5.36366 5.18506C5.55211 4.73009 5.64911 4.24246 5.64911 3.75L1.89911 7.5ZM22.8991 12C21.9045 12 20.9507 12.3951 20.2475 13.0983C19.5442 13.8016 19.1491 14.7554 19.1491 15.75L22.8991 12Z" stroke="#591567" stroke-width="1.53756" stroke-linecap="round" stroke-linejoin="round"></path></svg><svg viewBox="0 0 30 31" fill="none" id="linkedin"><path d="M6.71502 30.308H0.495425V10.279H6.71502V30.308ZM3.60187 7.54688C1.61348 7.54688 0 5.89956 0 3.91072C0 1.92188 1.61348 0.308044 3.60187 0.308044C5.59027 0.308044 7.20375 1.92188 7.20375 3.91072C7.20375 5.89956 5.59027 7.54688 3.60187 7.54688ZM29.9933 30.308H23.7871V20.558C23.7871 18.2344 23.7402 15.2545 20.5534 15.2545C17.3198 15.2545 16.8244 17.779 16.8244 20.3906V30.308H10.6115V10.279H16.5767V13.0112H16.6637C17.4939 11.4375 19.5224 9.77679 22.5485 9.77679C28.8418 9.77679 30 13.9219 30 19.3058V30.308H29.9933Z" fill="#857885"></path></svg><svg viewBox="0 0 51 52" fill="none" id="marker"><path d="M48.6487 41.0969C52.3937 23.3425 49.3447 11.6324 47.3947 8.04241L47.3876 8.0293L47.3819 8.01553C46.5875 6.11244 44.7568 3.48053 41.861 1.8012C39.1392 0.2228 35.4571 -0.525996 30.7632 0.992912L30.766 1.00138C13.6566 6.81024 5.18415 15.4137 3.10414 18.9293L3.09655 18.9421L3.08769 18.9541C1.86309 20.6108 0.542536 23.5349 0.580339 26.8946C0.615935 30.0582 1.85558 33.6309 5.56378 36.9208L5.5654 36.9188C19.2531 48.4494 30.9096 51.1969 34.967 51.1455L34.9818 51.1453L34.9966 51.1466C37.0334 51.33 40.1996 50.9394 43.0433 49.1688C45.4596 47.6642 47.6579 45.1546 48.7316 41.1146L48.6487 41.0969Z" fill="#F7F3FA"></path></svg><svg viewBox="0 0 25 25" fill="none" id="receipt-icon"><g clip-path="url(#receipt-icon_0)"><path d="M8.24915 15.9484V2.27832L9.74915 3.03777L11.2491 2.27832L12.7463 3.03777L14.2637 2.27832L15.7491 3.03777L17.2393 2.27832L18.736 3.03777L20.2491 2.27832L21.7496 3.03777L23.2491 2.27832V12.9106" stroke="#591567" stroke-width="1.5189" stroke-linejoin="round"></path><path d="M23.2491 12.9106V18.2268C23.2491 19.2339 22.8541 20.1997 22.1508 20.9118C21.4475 21.624 20.4937 22.024 19.4991 22.024V22.024C18.5046 22.024 17.5508 21.624 16.8475 20.9118C16.1442 20.1997 15.7491 19.2339 15.7491 18.2268V15.9484H2.99914C2.90041 15.9476 2.80249 15.9666 2.7111 16.0044C2.61971 16.0423 2.53668 16.0982 2.46686 16.1689C2.39704 16.2396 2.34183 16.3237 2.30445 16.4162C2.26707 16.5088 2.24827 16.6079 2.24914 16.7079C2.24914 19.7457 2.56508 22.024 5.99914 22.024H19.4991" stroke="#591567" stroke-width="1.5189" stroke-linejoin="round"></path><path d="M14.2491 10.6323H20.2491M11.2491 6.83508H20.2491H11.2491Z" stroke="#591567" stroke-width="1.5189" stroke-linecap="round" stroke-linejoin="round"></path></g><defs><clipPath id="receipt-icon_0"><rect width="24" height="24.3024" fill="white" transform="translate(0.749146)"></rect></clipPath></defs></svg><svg viewBox="0 0 30 26" fill="none" id="twitter"><path d="M26.9163 6.53849C26.9354 6.81191 26.9354 7.0854 26.9354 7.35882C26.9354 15.6986 20.7488 25.308 9.44166 25.308C5.95813 25.308 2.7221 24.2728 0 22.476C0.494943 22.5346 0.970785 22.5541 1.48477 22.5541C4.3591 22.5541 7.00509 21.5581 9.11804 19.8589C6.41499 19.8002 4.14974 17.9838 3.36927 15.4838C3.75001 15.5424 4.1307 15.5815 4.53049 15.5815C5.0825 15.5815 5.63457 15.5033 6.1485 15.3666C3.33124 14.7807 1.21823 12.2416 1.21823 9.17522V9.09713C2.03673 9.56588 2.98859 9.85884 3.9974 9.89786C2.3413 8.76502 1.25631 6.83145 1.25631 4.64394C1.25631 3.47208 1.56083 2.39787 2.09386 1.46036C5.12053 5.28848 9.67006 7.78844 14.7715 8.06192C14.6764 7.59317 14.6193 7.10494 14.6193 6.61665C14.6193 3.14004 17.3604 0.308044 20.7678 0.308044C22.5381 0.308044 24.137 1.06976 25.2602 2.30023C26.6497 2.02681 27.9822 1.49944 29.1625 0.776798C28.7055 2.24167 27.7348 3.47214 26.4594 4.25334C27.6967 4.11669 28.896 3.76505 30 3.27682C29.1626 4.52676 28.1156 5.64 26.9163 6.53849Z" fill="#857885"></path></svg><svg viewBox="0 0 28 22" fill="none" id="youtube"><path d="m17.85 10.8-5.24-3.5a.65.65 0 0 0-1.01.55v6.98a.65.65 0 0 0 1.01.54l5.24-3.49a.65.65 0 0 0 0-1.09Zm-4.94 2.8V9.08l3.4 2.27-3.4 2.27Zm12.48-8.56a2.4 2.4 0 0 0-1.45-1.63C20.22 1.98 14.25 2 14 2s-6.22-.02-9.94 1.4a2.4 2.4 0 0 0-1.45 1.64 25.32 25.32 0 0 0-.61 6.3c0 3.26.33 5.22.61 6.3a2.4 2.4 0 0 0 1.45 1.63c3.72 1.43 9.69 1.4 9.94 1.4h.08c.75 0 6.31-.04 9.86-1.4a2.4 2.4 0 0 0 1.45-1.64c.28-1.07.61-3.03.61-6.3 0-3.25-.33-5.22-.61-6.29Zm-1.27 12.27a1.1 1.1 0 0 1-.65.74c-3.5 1.34-9.4 1.32-9.47 1.32-.07 0-5.98.02-9.47-1.32a1.09 1.09 0 0 1-.65-.74c-.27-1-.57-2.85-.57-5.97 0-3.12.3-4.97.57-5.97a1.1 1.1 0 0 1 .65-.74C8.03 3.29 13.93 3.3 14 3.3c.07 0 5.98-.02 9.47 1.32a1.1 1.1 0 0 1 .65.74c.27 1 .57 2.85.57 5.97 0 3.12-.3 4.96-.57 5.97Z" fill="#666666"></path></svg></svg>