<svg width="30" height="26" viewBox="0 0 30 26" fill="none" xmlns="http://www.w3.org/2000/svg">
<path d="M26.9163 6.53849C26.9354 6.81191 26.9354 7.0854 26.9354 7.35882C26.9354 15.6986 20.7488 25.308 9.44166 25.308C5.95813 25.308 2.7221 24.2728 0 22.476C0.494943 22.5346 0.970785 22.5541 1.48477 22.5541C4.3591 22.5541 7.00509 21.5581 9.11804 19.8589C6.41499 19.8002 4.14974 17.9838 3.36927 15.4838C3.75001 15.5424 4.1307 15.5815 4.53049 15.5815C5.0825 15.5815 5.63457 15.5033 6.1485 15.3666C3.33124 14.7807 1.21823 12.2416 1.21823 9.17522V9.09713C2.03673 9.56588 2.98859 9.85884 3.9974 9.89786C2.3413 8.76502 1.25631 6.83145 1.25631 4.64394C1.25631 3.47208 1.56083 2.39787 2.09386 1.46036C5.12053 5.28848 9.67006 7.78844 14.7715 8.06192C14.6764 7.59317 14.6193 7.10494 14.6193 6.61665C14.6193 3.14004 17.3604 0.308044 20.7678 0.308044C22.5381 0.308044 24.137 1.06976 25.2602 2.30023C26.6497 2.02681 27.9822 1.49944 29.1625 0.776798C28.7055 2.24167 27.7348 3.47214 26.4594 4.25334C27.6967 4.11669 28.896 3.76505 30 3.27682C29.1626 4.52676 28.1156 5.64 26.9163 6.53849Z" fill="#857885"/>
</svg>
