<svg width="51" height="51" viewBox="0 0 51 51" fill="none" xmlns="http://www.w3.org/2000/svg">
<g clip-path="url(#clip0_19_2)">
<rect width="1500" height="4535" transform="translate(-159 -28)" fill="#F7F3FA"/>
<path d="M578.897 575.739C177.61 753.672 -108.492 556.813 -201.383 436.143V-324.343H1450.85V195.496C1327.4 248.105 980.183 397.806 578.897 575.739Z" fill="url(#paint0_linear_19_2)"/>
<path d="M679.152 81.3502C1067.9 254.909 1365.58 120.769 1465.82 32.0037L1514 -573.819L-133.034 -704.805L-165.968 -290.688C-46.2407 -238.992 290.401 -92.209 679.152 81.3502Z" fill="url(#paint1_linear_19_2)"/>
<g clip-path="url(#clip1_19_2)">
<path d="M47.653 25.9008C47.653 27.0504 47.294 28.1717 46.6255 29.1096C45.9571 30.0475 45.0122 30.7557 43.9215 31.1363C43.6277 31.1983 43.3362 31.2751 43.0481 31.3619C41.052 31.9809 39.2935 33.1911 38.0075 34.8308C36.7215 36.4705 35.9694 38.4616 35.8516 40.538C35.8288 40.9589 35.8314 41.3808 35.8596 41.8014C35.7514 42.7919 35.3769 43.7351 34.7756 44.5319C34.1743 45.3287 33.3683 45.9498 32.4423 46.3297C31.5163 46.7097 30.5045 46.8346 29.5133 46.6913C28.522 46.548 27.5878 46.1418 26.8089 45.5153C26.03 44.8889 25.4351 44.0654 25.0867 43.1313C24.7383 42.1972 24.6493 41.187 24.829 40.2068C25.0088 39.2267 25.4506 38.3128 26.1081 37.5611C26.7656 36.8095 27.6145 36.2479 28.5656 35.9353C28.7818 35.8864 28.9973 35.8296 29.2121 35.7649C31.2705 35.1495 33.0826 33.9067 34.3927 32.212C35.7029 30.5172 36.4449 28.456 36.514 26.3193C36.5223 26.0598 36.5223 25.8003 36.514 25.5409C36.4202 23.4404 35.6766 21.4199 34.3849 19.7556C33.0932 18.0912 31.3164 16.8641 29.2971 16.2419C29.0419 16.1618 28.7833 16.0941 28.5236 16.0366C27.5742 15.7099 26.7311 15.1342 26.0834 14.3703C25.4358 13.6064 25.0076 12.6827 24.8442 11.6967C24.6808 10.7108 24.7882 9.69925 25.155 8.76901C25.5219 7.83876 26.1346 7.02435 26.9283 6.41184C27.7221 5.79933 28.6675 5.41146 29.6646 5.28922C30.6617 5.16698 31.6735 5.31492 32.593 5.71739C33.5126 6.11986 34.3057 6.76192 34.8887 7.57573C35.4717 8.38953 35.8228 9.34486 35.905 10.3408C35.8947 10.6205 35.897 10.9048 35.905 11.1812C36.008 13.2883 36.7645 15.312 38.0706 16.9743C39.3767 18.6365 41.1682 19.8557 43.199 20.4644C43.4024 20.5253 43.6065 20.5791 43.8114 20.6257C44.9289 20.9902 45.9021 21.6965 46.592 22.6438C47.2819 23.5911 47.6532 24.731 47.653 25.9008Z" fill="white"/>
<path d="M9.32394 40.0326C9.39852 38.8869 9.8284 37.7924 10.5544 36.8998C11.2803 36.0072 12.2667 35.3604 13.3776 35.0486C13.68 35.0057 13.9779 34.9485 14.2713 34.8771C16.5154 34.3367 18.5107 33.0596 19.9351 31.2521C21.3594 29.4447 22.1295 27.2124 22.1211 24.9159C22.293 23.9348 22.7272 23.0178 23.3783 22.2612C24.0294 21.5046 24.8733 20.9363 25.8214 20.6159C26.7694 20.2956 27.7867 20.235 28.7664 20.4406C29.7462 20.6462 30.6521 21.1104 31.3893 21.7844C32.1265 22.4583 32.6676 23.3173 32.9559 24.271C33.2441 25.2248 33.269 26.2381 33.0277 27.2047C32.7864 28.1712 32.2879 29.0554 31.5846 29.7642C30.8813 30.4731 29.9991 30.9805 29.0306 31.2333C28.8038 31.2694 28.5788 31.3134 28.3558 31.3653C26.2621 31.8501 24.3743 32.9765 22.9587 34.5857C21.5432 36.1948 20.6714 38.2054 20.4663 40.3338C20.4413 40.5842 20.4277 40.8358 20.4221 41.0873C20.3206 41.8749 20.0505 42.6317 19.6299 43.3066C19.2093 43.9814 18.648 44.5587 17.9839 44.9993C17.3199 45.44 16.5685 45.7338 15.7804 45.861C14.9924 45.9881 14.1862 45.9456 13.4161 45.7363C13.2176 45.6618 13.018 45.5941 12.815 45.5343C11.7248 45.0996 10.8004 44.3337 10.1736 43.3458C9.54672 42.3579 9.24938 41.1984 9.32394 40.0326Z" fill="white"/>
</g>
</g>
<defs>
<linearGradient id="paint0_linear_19_2" x1="-201.383" y1="-235.794" x2="1421.68" y2="212.164" gradientUnits="userSpaceOnUse">
<stop stop-color="#5C0E62"/>
<stop offset="1" stop-color="#00B5D0"/>
</linearGradient>
<linearGradient id="paint1_linear_19_2" x1="1303.44" y1="-389.059" x2="75.8061" y2="-141.877" gradientUnits="userSpaceOnUse">
<stop stop-color="#00B5D0"/>
<stop offset="1" stop-color="#5C0E62"/>
</linearGradient>
<clipPath id="clip0_19_2">
<rect width="1500" height="4535" fill="white" transform="translate(-159 -28)"/>
</clipPath>
<clipPath id="clip1_19_2">
<rect width="198" height="49" fill="white" transform="translate(9 2)"/>
</clipPath>
</defs>
</svg>
